<svg width="32" height="35" viewBox="0 0 32 35" fill="none" xmlns="http://www.w3.org/2000/svg">
<path d="M8.41212 4.58588C7.317 4.93901 6.46013 5.32676 5.40431 6.10151C5.26742 6.23219 5.13322 6.36568 5.00181 6.50188C5.01681 6.53726 5.03994 6.58094 5.07413 6.64251C5.13763 6.75701 5.24706 6.89394 5.38475 7.02938C5.17373 7.36806 4.97567 7.71464 4.791 8.06838C4.562 7.87838 4.3565 7.66694 4.19138 7.42963C3.71254 8.02653 3.28522 8.66298 2.914 9.33213C2.93869 9.43438 3.01131 9.54588 3.15025 9.69526C3.31625 9.87357 3.57556 10.0578 3.87688 10.2149C3.75038 10.5972 3.64188 10.9776 3.55275 11.3574C3.08775 11.1461 2.66244 10.8719 2.32813 10.5234C1.95122 11.4001 1.67029 12.3149 1.49025 13.2519C1.57369 13.4041 1.72238 13.5434 1.94725 13.6914C2.26425 13.9002 2.71975 14.0712 3.21488 14.17C3.21206 14.5723 3.2305 14.9714 3.26563 15.3653C2.55269 15.2607 1.86531 15.0373 1.30469 14.668C1.30156 14.6659 1.29806 14.6643 1.29494 14.6621C1.21487 15.6182 1.23777 16.5801 1.36325 17.5313C1.50763 17.7488 1.74925 17.9036 2.10931 18.0274C2.57219 18.1865 3.20131 18.2364 3.84181 18.1719C3.96681 18.5545 4.109 18.93 4.26744 19.2969C3.39431 19.428 2.50263 19.3983 1.73038 19.1328C1.70931 19.1256 1.68881 19.1171 1.66788 19.1094C1.91506 20.0706 2.26813 21.0014 2.72063 21.8848C2.94269 22.06 3.2425 22.1483 3.64063 22.1758C4.22188 22.216 4.96213 22.0676 5.668 21.7793C5.89944 22.1071 6.14445 22.4251 6.40238 22.7324C5.49175 23.1521 4.50488 23.3996 3.58594 23.3418C4.20802 24.2555 4.93935 25.0898 5.76369 25.8262C6.02994 25.9166 6.34494 25.9178 6.72456 25.8437C7.32456 25.7266 8.028 25.3809 8.66394 24.9062H8.66594C8.98725 25.1545 9.31892 25.3891 9.66006 25.6093C8.91156 26.2287 8.0585 26.7153 7.18944 26.9356C7.9237 27.4324 8.70552 27.855 9.52337 28.1972C9.83194 28.2236 10.1665 28.1372 10.5449 27.9531C11.0244 27.7196 11.5311 27.3123 11.9843 26.8106C13.049 27.2345 14.155 27.5118 15.2694 27.6171L15.3807 26.4531C14.4889 26.3687 13.5942 26.1549 12.7206 25.8319C13.1508 25.1377 13.4462 24.3836 13.5293 23.7421C13.6029 23.1725 13.5345 22.7323 13.2929 22.4023C12.7879 22.3035 12.2998 22.156 11.832 21.9648C11.8212 22.3691 11.7254 22.7764 11.5682 23.1581C11.3342 23.7271 10.9732 24.2705 10.5351 24.7656C10.1992 24.559 9.87268 24.3374 9.55656 24.1016C9.97031 23.6527 10.3018 23.1659 10.4882 22.7128C10.7261 22.1349 10.749 21.6767 10.5273 21.2872C10.043 20.9774 9.58956 20.6161 9.16988 20.2109C9.05906 20.4797 8.90819 20.7341 8.73038 20.9668C8.38813 21.4146 7.94463 21.8112 7.44519 22.1484C7.18769 21.8534 6.94194 21.5482 6.71081 21.2304C7.15781 20.937 7.54181 20.5991 7.80269 20.2578C8.11756 19.8456 8.25394 19.4821 8.20694 19.1269C7.89236 18.7117 7.61027 18.2729 7.36319 17.8144C7.22019 17.9826 7.05977 18.1352 6.88462 18.2696C6.46225 18.593 5.95975 18.8418 5.42175 19.0214C5.25956 18.6658 5.11194 18.3028 4.98425 17.9316C5.44844 17.7813 5.86737 17.5764 6.17362 17.3418C6.52962 17.0692 6.72375 16.8078 6.76937 16.5137C6.57774 16.0066 6.42305 15.4863 6.3065 14.9569C6.18975 15.0241 6.06836 15.0829 5.94325 15.1328C5.47763 15.3169 4.95888 15.4099 4.42575 15.4296C4.38354 15.041 4.36199 14.6505 4.36119 14.2596C4.796 14.2432 5.20269 14.1698 5.51369 14.0468C5.80119 13.9331 5.98837 13.8093 6.09762 13.6562C6.03243 13.0373 6.01544 12.4144 6.04681 11.7929C6.00619 11.7994 5.96619 11.8041 5.92569 11.8085C5.51169 11.8538 5.07844 11.8179 4.65031 11.7246C4.73594 11.3508 4.84219 10.9739 4.96869 10.5956C5.27306 10.6539 5.56481 10.6721 5.79869 10.6465C5.96206 10.6286 6.08194 10.5993 6.17369 10.5586C6.25954 10.0082 6.38422 9.46449 6.54681 8.93163C6.28544 8.88563 6.02906 8.80088 5.78119 8.68944C5.96227 8.34011 6.15708 7.99807 6.36519 7.66413C6.51606 7.72432 6.65994 7.76819 6.78312 7.78726C6.85231 7.79788 6.90956 7.80382 6.957 7.80476C7.07862 7.51476 7.20838 7.23163 7.34963 6.95707C7.71825 6.21944 8.12556 5.44132 8.41212 4.58588ZM23.6856 4.58588C23.972 5.44126 24.3793 6.21932 24.7481 6.95701C24.8905 7.23429 25.0221 7.51705 25.1424 7.80463C25.1894 7.80363 25.2462 7.79757 25.3143 7.78713C25.4381 7.76801 25.5828 7.72463 25.7343 7.66401C25.9424 7.99796 26.1372 8.34002 26.3183 8.68938C26.0698 8.80101 25.8123 8.88563 25.5508 8.93163C25.711 9.45601 25.8366 10.0004 25.9238 10.5585C26.0159 10.5996 26.1365 10.6285 26.3008 10.6465C26.5347 10.6721 26.8264 10.654 27.1308 10.5957C27.2546 10.9673 27.3602 11.3447 27.4473 11.7266C27.0199 11.8196 26.5871 11.8539 26.1738 11.8087C26.1327 11.8045 26.0917 11.7993 26.0509 11.7931C26.0829 12.4145 26.0665 13.0374 26.002 13.6563C26.1114 13.8094 26.2986 13.9332 26.5861 14.0469C26.8965 14.1698 27.3024 14.2432 27.7364 14.2598C27.7356 14.6507 27.7141 15.0412 27.6721 15.4298C27.1396 15.4098 26.6216 15.3168 26.1564 15.1329C26.0313 15.083 25.9099 15.0242 25.7931 14.9571C25.6765 15.4858 25.5218 16.0053 25.3303 16.5118C25.3749 16.8068 25.5674 17.0688 25.924 17.3419C26.2305 17.5764 26.6493 17.7813 27.1136 17.9316C26.9858 18.3029 26.8383 18.6658 26.6761 19.0215C26.1387 18.8418 25.6371 18.5926 25.2151 18.2696C25.0393 18.1353 24.8782 17.9827 24.7346 17.8144C24.484 18.2783 24.2021 18.7172 23.8909 19.1269C23.8434 19.4821 23.9803 19.8458 24.2953 20.2579C24.5558 20.5989 24.9398 20.9373 25.3869 21.2306C25.1559 21.5484 24.9101 21.8534 24.6526 22.1485C24.1532 21.8113 23.7097 21.4148 23.3674 20.9669C23.1901 20.7347 23.0403 20.4808 22.9299 20.2129C22.5106 20.6178 22.0564 20.9776 21.5724 21.2871C21.3508 21.6767 21.3737 22.1349 21.6116 22.7129C21.7981 23.166 22.1296 23.6527 22.5433 24.1016C22.2265 24.3374 21.8994 24.559 21.5628 24.7656C21.1251 24.2705 20.7657 23.7271 20.5316 23.1581C20.3745 22.7765 20.2786 22.3692 20.2678 21.9649C19.7956 22.158 19.3057 22.3045 18.805 22.4024C18.5629 22.7324 18.495 23.1726 18.5688 23.7422C18.6517 24.3837 18.9488 25.1378 19.3792 25.8321C18.5058 26.1551 17.6109 26.3688 16.7191 26.4531L16.8284 27.6172C17.9434 27.5118 19.0501 27.2349 20.1156 26.8106C20.5687 27.3123 21.0754 27.7196 21.5549 27.9531C21.9334 28.1373 22.2679 28.2237 22.5765 28.1972C23.3944 27.8551 24.1762 27.4325 24.9104 26.9355C24.0419 26.7155 23.1878 26.2297 22.4398 25.6111C22.7799 25.3921 23.111 25.1553 23.4339 24.9061C24.0701 25.3814 24.7749 25.7265 25.3753 25.8436C25.7538 25.9175 26.0684 25.9177 26.3343 25.828C27.1593 25.0911 27.8913 24.2562 28.5139 23.3418C27.5949 23.3996 26.6061 23.1521 25.6955 22.7324C25.953 22.4253 26.1996 22.108 26.4318 21.7793C27.1377 22.0674 27.8779 22.2159 28.4593 22.1756C28.8573 22.1481 29.1571 22.0599 29.3791 21.8846C29.8315 21.0013 30.1846 20.0705 30.4318 19.1093C30.4109 19.1169 30.3904 19.1255 30.3693 19.1327C29.5971 19.3981 28.7054 19.4279 27.8322 19.2968C27.9913 18.9285 28.1334 18.5531 28.258 18.1718C28.8978 18.2359 29.5261 18.1861 29.9885 18.0272C30.3488 17.9034 30.5916 17.7488 30.7365 17.5311C30.8613 16.5799 30.8836 15.618 30.803 14.662C30.8003 14.6638 30.7979 14.6661 30.7952 14.6679C30.2346 15.0371 29.5471 15.2606 28.8342 15.3651C28.8694 14.9713 28.8877 14.5722 28.8849 14.1698C29.3799 14.0709 29.8356 13.9 30.1524 13.6913C30.377 13.5434 30.5241 13.4035 30.6076 13.2518C30.4274 12.3147 30.1465 11.3999 29.7696 10.5233C29.4354 10.8714 29.0113 11.1458 28.547 11.3573C28.456 10.9718 28.3478 10.5906 28.2228 10.2147C28.5231 10.0576 28.7816 9.87319 28.9474 9.69513C29.0856 9.54663 29.16 9.43576 29.1857 9.33388C28.8145 8.66408 28.3871 8.027 27.9082 7.42951C27.7431 7.66676 27.5376 7.87826 27.3087 8.06826C27.124 7.7145 26.9259 7.36787 26.7149 7.02913C26.8529 6.89376 26.962 6.75663 27.0254 6.64226C27.0591 6.58163 27.0829 6.53876 27.0977 6.50363C26.9657 6.36677 26.8309 6.23264 26.6934 6.10132C25.6376 5.32657 24.7807 4.93901 23.6856 4.58588Z" fill="#463229"/>
</svg>
