<svg width="230" height="51" viewBox="0 0 230 51" fill="none" xmlns="http://www.w3.org/2000/svg">
<path d="M39.4 14.28L34.288 7.36798H11.464L7.64801 12.552V39.048L11.464 44.232H34.216L39.4 37.32L44.728 41.424L37.528 51H8.152L0.880005 41.352V10.248L8.152 0.599976H37.6L44.8 10.176L39.4 14.28Z" fill="#141414"/>
<path d="M51.3109 51V0.599976H57.7909V51H51.3109Z" fill="#141414"/>
<path d="M95.1899 29.328H71.7179V51H65.0219V0.599976H99.7979L103.542 9.81598V17.232L95.1899 29.328ZM96.8459 11.112L95.3339 7.36798H71.7179V22.56H91.6619L96.8459 15.072V11.112Z" fill="#141414"/>
<path d="M139.542 51V29.04H116.646V51H110.022V0.599976H116.646V22.272H139.542V0.599976H146.166V51H139.542Z" fill="#141414"/>
<path d="M160.534 51L153.334 41.352V10.248L160.534 0.599976H184.87V7.36798H163.846L160.03 12.552V22.56H179.974V29.328H160.03V39.048L163.846 44.232H184.87V51H160.534Z" fill="#141414"/>
<path d="M221.541 29.184H220.317L229.749 51H222.333L213.045 29.184H197.997V51H191.373V0.599976H226.149L229.965 9.67198V17.16L221.541 29.184ZM223.269 11.04L221.757 7.36798H198.069V22.488H218.157L223.269 15V11.04Z" fill="#141414"/>
</svg>
